<svg xmlns="http://www.w3.org/2000/svg" viewBox="0 0 250 50" version="1.1">
	<defs>
		<linearGradient id="redGrad" x1=".26" y1="49.26" x2="100" y2="49.26" gradientUnits="userSpaceOnUse" gradientTransform="matrix(.5 0 0 .53689 11.11 -2.37)">
			<stop offset=".45" stop-color="#ffcaaf"/>
			<stop offset=".5" stop-color="#e5b69d"/>
			<stop offset=".55" stop-color="#ffcaaf"/>
		</linearGradient>
		<linearGradient id="blueGrad" x1="0" y1="51.91" x2="100" y2="51.91" gradientUnits="userSpaceOnUse" gradientTransform="matrix(.5 0 0 .53689 11.11 -2.37)">
			<stop offset=".45" stop-color="#85d4ff"/>
			<stop offset=".5" stop-color="#78bfe5"/>
			<stop offset=".55" stop-color="#85d4ff"/>
		</linearGradient>
		<linearGradient id="paperGrad" x1="0" y1="196.19" x2="377.95" y2="196.19" gradientUnits="userSpaceOnUse" gradientTransform="matrix(.1323 0 0 .14205 11.11 -2.37)">
			<stop offset=".45" stop-color="#faffeb"/>
			<stop offset=".5" stop-color="#e1e5d3"/>
			<stop offset=".55" stop-color="#faffeb"/>
		</linearGradient>
	</defs>
	<g aria-label="Layman" fill="#52544c">
		<path d="M 81.7 10.89 l -2.93 -0.5 v -2.36 h 12.2 v 2.36 l -3.66 0.5 v 22.74 l 8.15 -0.34 l 2.4 -7.12 l 3.09 0.41 l -1.18 9.76 H 78.7 v -2.29 l 3 -0.38 z"/>
		<path d="M 102.78 30.4 q 0 -3.47 3.46 -5.23 q 3.5 -1.75 9.03 -1.79 v -0.87 q 0 -1.56 -0.34 -2.44 q -0.3 -0.88 -1.18 -1.3 q -0.84 -0.45 -2.48 -0.45 q -1.87 0 -3.35 0.5 q -1.49 0.45 -3.09 1.21 l -1.18 -2.44 q 0.57 -0.5 1.9 -1.18 q 1.38 -0.68 3.24 -1.18 q 1.87 -0.53 3.85 -0.53 q 2.94 0 4.57 0.76 q 1.68 0.76 2.4 2.44 q 0.73 1.67 0.73 4.5 v 11.65 h 2.06 v 2.14 q -0.77 0.19 -2.18 0.38 q -1.4 0.19 -2.47 0.19 q -1.3 0 -1.75 -0.38 q -0.42 -0.39 -0.42 -1.57 V 33.8 q -1.03 1.14 -2.67 2.05 q -1.64 0.92 -3.7 0.92 q -1.75 0 -3.23 -0.73 q -1.45 -0.76 -2.33 -2.17 q -0.87 -1.45 -0.87 -3.47 z m 8.87 3.2 q 0.8 0 1.83 -0.46 q 1.03 -0.5 1.8 -1.18 V 25.7 q -3.44 0 -5.15 1.18 q -1.68 1.14 -1.68 2.97 q 0 1.83 0.84 2.78 q 0.88 0.95 2.36 0.95 z"/>
		<path d="M 128.15 45.82 q -0.69 0 -1.49 -0.11 q -0.76 -0.11 -1.1 -0.27 v -4.07 q 0.27 0.15 1.07 0.3 t 1.44 0.15 q 1.9 0 3.13 -1.25 q 1.25 -1.26 2.32 -4.23 h -2.06 l -7.16 -18.48 l -1.71 -0.5 v -2.2 h 10.47 v 2.2 l -2.78 0.46 l 3.4 10.55 l 1.37 4.5 l 1.18 -4.5 l 3.12 -10.55 l -2.4 -0.46 v -2.2 h 8.27 v 2.2 l -1.87 0.46 q -2.1 6.4 -4.15 12.35 q -2.06 5.94 -2.4 6.66 q -1.22 3.2 -2.33 5.1 q -1.1 1.91 -2.62 2.9 q -1.53 1 -3.7 1 z"/>
		<path d="M 146.59 34.05 l 2.13 -0.34 V 18.77 l -2.43 -0.68 v -2.63 l 6.32 -0.8 l 0.46 0.3 l 0.57 1.26 v 1.6 q 1.26 -1.22 3.58 -2.13 q 2.36 -0.95 4.08 -0.95 q 2.05 0 3.31 0.68 q 1.3 0.69 1.94 2.13 q 1.26 -1.14 3.32 -1.98 q 2.06 -0.83 4.04 -0.83 q 3.39 0 4.8 1.98 q 1.4 1.98 1.4 6.47 v 10.52 l 2.48 0.34 v 2.29 h -9.86 v -2.29 l 1.98 -0.34 V 23.35 q 0 -2.98 -0.73 -4.16 q -0.68 -1.22 -2.66 -1.22 q -1.07 0 -2.21 0.5 q -1.1 0.46 -1.98 1.14 q 0.26 1.45 0.26 3.62 v 10.48 l 2.36 0.34 v 2.29 h -9.94 v -2.29 l 2.1 -0.34 V 23.23 q 0 -1.98 -0.27 -3.08 q -0.23 -1.15 -0.91 -1.64 q -0.7 -0.54 -1.99 -0.54 q -1.22 0 -2.43 0.58 q -1.19 0.53 -2.14 1.29 v 13.87 l 2.25 0.34 v 2.29 h -9.83 z"/>
		<path d="M 184.77 30.4 q 0 -3.47 3.46 -5.23 q 3.5 -1.75 9.03 -1.79 v -0.87 q 0 -1.56 -0.34 -2.44 q -0.3 -0.88 -1.18 -1.3 q -0.84 -0.45 -2.48 -0.45 q -1.86 0 -3.35 0.5 q -1.49 0.45 -3.09 1.21 l -1.18 -2.44 q 0.57 -0.5 1.9 -1.18 q 1.38 -0.68 3.25 -1.18 q 1.86 -0.53 3.84 -0.53 q 2.94 0 4.58 0.76 q 1.67 0.76 2.4 2.44 q 0.72 1.67 0.72 4.5 v 11.65 h 2.06 v 2.14 q -0.76 0.19 -2.17 0.38 t -2.48 0.19 q -1.3 0 -1.75 -0.38 q -0.42 -0.39 -0.42 -1.57 V 33.8 q -1.03 1.14 -2.67 2.05 q -1.64 0.92 -3.7 0.92 q -1.75 0 -3.23 -0.73 q -1.45 -0.76 -2.33 -2.17 q -0.87 -1.45 -0.87 -3.47 z m 8.87 3.2 q 0.8 0 1.83 -0.46 q 1.03 -0.5 1.8 -1.18 V 25.7 q -3.44 0 -5.15 1.18 q -1.68 1.14 -1.68 2.97 q 0 1.83 0.84 2.78 q 0.88 0.95 2.36 0.95 z"/>
		<path d="M 208.88 18.77 l -2.43 -0.68 v -2.63 l 6.32 -0.8 h 0.11 l 0.96 0.76 v 1.49 l -0.04 0.91 q 1.33 -1.26 3.47 -2.17 q 2.13 -0.91 4.3 -0.91 q 2.32 0 3.62 0.87 q 1.33 0.84 1.9 2.67 q 0.58 1.83 0.58 4.95 v 10.52 l 2.32 0.3 v 2.29 h -9.83 v -2.29 l 2.06 -0.3 V 23.23 q 0 -1.98 -0.27 -3.08 q -0.26 -1.15 -0.99 -1.64 q -0.68 -0.54 -1.98 -0.54 q -2.17 0 -4.65 1.87 v 13.87 l 2.29 0.34 v 2.29 h -9.95 v -2.29 l 2.21 -0.34 z"/>
		<path d="M 236.28 36.68 q -1.18 0 -2.06 -0.8 q -0.88 -0.84 -0.88 -2.1 q 0 -1.4 1 -2.28 q 1.02 -0.92 2.47 -0.92 q 1.37 0 2.17 0.88 q 0.8 0.84 0.8 2.02 q 0 1.49 -0.99 2.36 q -0.95 0.84 -2.51 0.84 z"/>
	</g>
	<g>
		<path d="M11.11 3v40.27l25 4.73 25-4.73V3l-25 4.73z" fill="url(#paperGrad)"/>
		<path d="M11.11 3v40.27l25 4.73 25-4.73v-9.15l-25 4.73-16.59-2.84V4.36z" fill="url(#blueGrad)"/>
		<path d="M61.11 3l-25 4.73-16.59-3.37v9.15l16.6 3.37 16.58-2.84V44.9l8.41-1.63z" fill="url(#redGrad)"/>
	</g>
</svg>